<svg width="3297" height="2200" viewBox="0 0 3297 2200" fill="none" xmlns="http://www.w3.org/2000/svg">
<g id="nothing-ear-1" clip-path="url(#clip0_212_134)">
<g id="Notes">
<path id="artboard" d="M3297 0H0V2200H3297V0Z" fill="white"/>
<path id="Vector" d="M262.761 292H3033.24" stroke="black" stroke-width="0.5"/>
<text id="Weight/Scale Variations" fill="black" xml:space="preserve" style="white-space: pre" font-family="Inter" font-size="13" font-weight="bold" letter-spacing="0em"><tspan x="262.761" y="321.727">Weight/Scale Variations</tspan></text>
<text id="Ultralight" fill="black" xml:space="preserve" style="white-space: pre" font-family="Inter" font-size="13" letter-spacing="0em"><tspan x="531.152" y="321.727">Ultralight</tspan></text>
<text id="Thin" fill="black" xml:space="preserve" style="white-space: pre" font-family="Inter" font-size="13" letter-spacing="0em"><tspan x="842.288" y="321.727">Thin</tspan></text>
<text id="Light" fill="black" xml:space="preserve" style="white-space: pre" font-family="Inter" font-size="13" letter-spacing="0em"><tspan x="1136.72" y="321.727">Light</tspan></text>
<text id="Regular" fill="black" xml:space="preserve" style="white-space: pre" font-family="Inter" font-size="13" letter-spacing="0em"><tspan x="1425.26" y="321.727">Regular</tspan></text>
<text id="Medium" fill="black" xml:space="preserve" style="white-space: pre" font-family="Inter" font-size="13" letter-spacing="0em"><tspan x="1720.4" y="321.727">Medium</tspan></text>
<text id="Semibold" fill="black" xml:space="preserve" style="white-space: pre" font-family="Inter" font-size="13" letter-spacing="0em"><tspan x="2012.8" y="321.727">Semibold</tspan></text>
<text id="Bold" fill="black" xml:space="preserve" style="white-space: pre" font-family="Inter" font-size="13" letter-spacing="0em"><tspan x="2324.17" y="321.727">Bold</tspan></text>
<text id="Heavy" fill="black" xml:space="preserve" style="white-space: pre" font-family="Inter" font-size="13" letter-spacing="0em"><tspan x="2614.93" y="321.727">Heavy</tspan></text>
<text id="Black" fill="black" xml:space="preserve" style="white-space: pre" font-family="Inter" font-size="13" letter-spacing="0em"><tspan x="2914.13" y="321.727">Black</tspan></text>
<path id="Vector_2" d="M262.761 1903H3033.24" stroke="black" stroke-width="0.5"/>
<g id="Group">
<path id="Vector_3" d="M272.001 1933.83C276.303 1933.83 279.884 1930.26 279.884 1925.95C279.884 1921.64 276.294 1918.07 271.991 1918.07C267.698 1918.07 264.127 1921.64 264.127 1925.95C264.127 1930.26 267.708 1933.83 272.001 1933.83ZM272.001 1932.35C268.459 1932.35 265.629 1929.5 265.629 1925.95C265.629 1922.39 268.449 1919.55 271.991 1919.55C275.542 1919.55 278.391 1922.39 278.391 1925.95C278.391 1929.5 275.552 1932.35 272.001 1932.35ZM268.41 1925.95C268.41 1926.38 268.713 1926.67 269.161 1926.67H271.259V1928.79C271.259 1929.23 271.552 1929.53 271.981 1929.53C272.43 1929.53 272.723 1929.23 272.723 1928.79V1926.67H274.84C275.279 1926.67 275.581 1926.38 275.581 1925.95C275.581 1925.51 275.279 1925.21 274.84 1925.21H272.723V1923.1C272.723 1922.65 272.43 1922.35 271.981 1922.35C271.552 1922.35 271.259 1922.65 271.259 1923.1V1925.21H269.161C268.713 1925.21 268.41 1925.51 268.41 1925.95Z" fill="black"/>
</g>
<g id="Group_2">
<path id="Vector_4" d="M293.309 1935.91C298.754 1935.91 303.261 1931.39 303.261 1925.95C303.261 1920.5 298.744 1915.99 293.3 1915.99C287.865 1915.99 283.357 1920.5 283.357 1925.95C283.357 1931.39 287.875 1935.91 293.309 1935.91ZM293.309 1934.25C288.704 1934.25 285.026 1930.56 285.026 1925.95C285.026 1921.34 288.694 1917.65 293.3 1917.65C297.905 1917.65 301.603 1921.34 301.603 1925.95C301.603 1930.56 297.915 1934.25 293.309 1934.25ZM288.782 1925.95C288.782 1926.43 289.114 1926.75 289.611 1926.75H292.48V1929.63C292.48 1930.12 292.812 1930.46 293.29 1930.46C293.778 1930.46 294.119 1930.13 294.119 1929.63V1926.75H296.997C297.485 1926.75 297.827 1926.43 297.827 1925.95C297.827 1925.46 297.485 1925.12 296.997 1925.12H294.119V1922.25C294.119 1921.75 293.778 1921.41 293.29 1921.41C292.812 1921.41 292.48 1921.75 292.48 1922.25V1925.12H289.611C289.114 1925.12 288.782 1925.46 288.782 1925.95Z" fill="black"/>
</g>
<g id="Group_3">
<path id="Vector_5" d="M320.325 1938.66C327.282 1938.66 333.038 1932.9 333.038 1925.95C333.038 1918.99 327.272 1913.22 320.316 1913.22C313.369 1913.22 307.622 1918.99 307.622 1925.95C307.622 1932.9 313.379 1938.66 320.325 1938.66ZM320.325 1936.85C314.296 1936.85 309.447 1931.98 309.447 1925.95C309.447 1919.9 314.286 1915.05 320.316 1915.05C326.355 1915.05 331.214 1919.9 331.214 1925.95C331.214 1931.98 326.365 1936.85 320.325 1936.85ZM314.559 1925.95C314.559 1926.47 314.93 1926.83 315.476 1926.83H319.418V1930.78C319.418 1931.32 319.789 1931.7 320.306 1931.7C320.842 1931.7 321.213 1931.33 321.213 1930.78V1926.83H325.165C325.701 1926.83 326.082 1926.47 326.082 1925.95C326.082 1925.4 325.711 1925.03 325.165 1925.03H321.213V1921.09C321.213 1920.54 320.842 1920.16 320.306 1920.16C319.789 1920.16 319.418 1920.54 319.418 1921.09V1925.03H315.476C314.93 1925.03 314.559 1925.4 314.559 1925.95Z" fill="black"/>
</g>
<text id="Design Variations" fill="black" xml:space="preserve" style="white-space: pre" font-family="Inter" font-size="13" font-weight="bold" letter-spacing="0em"><tspan x="262.761" y="1952.73">Design Variations</tspan></text>
<text id="Symbols are supported in up to nine weights and three scales." fill="black" xml:space="preserve" style="white-space: pre" font-family="Inter" font-size="13" letter-spacing="0em"><tspan x="262.761" y="1970.73">Symbols are supported in up to nine weights and three scales.</tspan></text>
<text id="For optimal layout with text and other symbols, vertically align" fill="black" xml:space="preserve" style="white-space: pre" font-family="Inter" font-size="13" letter-spacing="0em"><tspan x="262.761" y="1988.73">For optimal layout with text and other symbols, vertically </tspan><tspan x="262.761" y="2004.73">align</tspan></text>
<text id="symbols with the adjacent text." fill="black" xml:space="preserve" style="white-space: pre" font-family="Inter" font-size="13" letter-spacing="0em"><tspan x="262.761" y="2006.73">symbols with the adjacent text.</tspan></text>
<path id="Vector_6" d="M775.294 1919V1933" stroke="#00AEEF" stroke-width="0.5"/>
<g id="Group_4">
<path id="Vector_7" d="M778.602 1933.16C779.119 1933.16 779.373 1932.96 779.558 1932.41L780.817 1928.97H786.573L787.832 1932.41C788.017 1932.96 788.271 1933.16 788.778 1933.16C789.295 1933.16 789.627 1932.84 789.627 1932.36C789.627 1932.19 789.598 1932.03 789.52 1931.83L784.944 1919.63C784.72 1919.04 784.319 1918.73 783.695 1918.73C783.09 1918.73 782.68 1919.03 782.466 1919.62L777.89 1931.84C777.812 1932.04 777.782 1932.2 777.782 1932.37C777.782 1932.85 778.095 1933.16 778.602 1933.16ZM781.295 1927.48L783.666 1920.91H783.715L786.085 1927.48H781.295Z" fill="black"/>
</g>
<path id="Vector_8" d="M792.476 1919V1933" stroke="#00AEEF" stroke-width="0.5"/>
<text id="Margins" fill="black" xml:space="preserve" style="white-space: pre" font-family="Inter" font-size="13" font-weight="bold" letter-spacing="0em"><tspan x="775.294" y="1952.73">Margins</tspan></text>
<text id="Leading and trailing margins on the left and right side of each symbol" fill="black" xml:space="preserve" style="white-space: pre" font-family="Inter" font-size="13" letter-spacing="0em"><tspan x="775.294" y="1970.73">Leading and trailing margins on the left and right side of each </tspan><tspan x="775.294" y="1986.73">symbol</tspan></text>
<text id="can be adjusted by modifying the x-location of the margin guidelines." fill="black" xml:space="preserve" style="white-space: pre" font-family="Inter" font-size="13" letter-spacing="0em"><tspan x="775.294" y="1988.73">can be adjusted by modifying the x-location of the margin guidelines.</tspan></text>
<text id="Modifications are automatically applied proportionally to all" fill="black" xml:space="preserve" style="white-space: pre" font-family="Inter" font-size="13" letter-spacing="0em"><tspan x="775.294" y="2006.73">Modifications are automatically applied proportionally to </tspan><tspan x="775.294" y="2022.73">all</tspan></text>
<text id="scales and weights." fill="black" xml:space="preserve" style="white-space: pre" font-family="Inter" font-size="13" letter-spacing="0em"><tspan x="775.294" y="2024.73">scales and weights.</tspan></text>
<g id="Group_5">
<path id="Vector_9" d="M1290.67 1934.87L1292.37 1936.57C1293.22 1937.44 1294.21 1937.38 1295.14 1936.36L1305.82 1924.57L1304.85 1923.6L1294.25 1935.28C1293.9 1935.68 1293.57 1935.77 1293.1 1935.3L1291.93 1934.14C1291.46 1933.68 1291.57 1933.34 1291.97 1932.98L1303.43 1922.18L1302.45 1921.21L1290.87 1932.1C1289.89 1933.02 1289.81 1934 1290.67 1934.87ZM1297.08 1916.67C1296.66 1917.08 1296.63 1917.66 1296.86 1918.05C1297.1 1918.41 1297.56 1918.64 1298.2 1918.48C1299.66 1918.14 1301.19 1918.08 1302.61 1919.02L1302.02 1920.47C1301.68 1921.3 1301.86 1921.89 1302.4 1922.43L1304.69 1924.75C1305.18 1925.24 1305.59 1925.26 1306.15 1925.16L1307.22 1924.96L1307.88 1925.64L1307.84 1926.19C1307.8 1926.69 1307.93 1927.07 1308.42 1927.55L1309.18 1928.29C1309.65 1928.77 1310.27 1928.8 1310.74 1928.33L1313.64 1925.41C1314.11 1924.94 1314.09 1924.35 1313.62 1923.87L1312.84 1923.11C1312.37 1922.63 1312 1922.47 1311.52 1922.51L1310.94 1922.56L1310.3 1921.93L1310.54 1920.8C1310.67 1920.24 1310.51 1919.8 1309.93 1919.21L1307.73 1917.02C1304.4 1913.7 1299.97 1913.78 1297.08 1916.67ZM1298.57 1917.04C1301 1915.27 1304.29 1915.57 1306.51 1917.79L1308.94 1920.21C1309.18 1920.44 1309.22 1920.63 1309.15 1920.97L1308.82 1922.45L1310.33 1923.94L1311.31 1923.88C1311.57 1923.87 1311.64 1923.89 1311.84 1924.08L1312.42 1924.66L1309.98 1927.1L1309.4 1926.53C1309.21 1926.33 1309.18 1926.25 1309.19 1925.99L1309.25 1925.01L1307.76 1923.53L1306.24 1923.78C1305.92 1923.85 1305.77 1923.82 1305.53 1923.59L1303.53 1921.58C1303.27 1921.35 1303.24 1921.18 1303.4 1920.81L1304.28 1918.72C1302.72 1917.27 1300.69 1916.64 1298.66 1917.24C1298.5 1917.28 1298.44 1917.15 1298.57 1917.04Z" fill="black"/>
</g>
<text id="Exporting" fill="black" xml:space="preserve" style="white-space: pre" font-family="Inter" font-size="13" font-weight="bold" letter-spacing="0em"><tspan x="1287.83" y="1952.73">Exporting</tspan></text>
<text id="Symbols should be outlined when exporting to ensure the" fill="black" xml:space="preserve" style="white-space: pre" font-family="Inter" font-size="13" letter-spacing="0em"><tspan x="1287.83" y="1970.73">Symbols should be outlined when exporting to ensure the</tspan></text>
<text id="design is preserved when submitting to Xcode." fill="black" xml:space="preserve" style="white-space: pre" font-family="Inter" font-size="13" letter-spacing="0em"><tspan x="1287.83" y="1988.73">design is preserved when submitting to </tspan><tspan x="1287.83" y="2004.73">Xcode.</tspan></text>
<text id="template-version" fill="black" xml:space="preserve" style="white-space: pre" font-family="Inter" font-size="13" letter-spacing="0em"><tspan x="2943.22" y="1932.73">Template v.4.0</tspan></text>
<text id="Requires Xcode 14 or greater" fill="black" xml:space="preserve" style="white-space: pre" font-family="Inter" font-size="13" letter-spacing="0em"><tspan x="2855.18" y="1950.73">Requires Xcode 14 or greater</tspan></text>
<text id="descriptive-name" fill="black" xml:space="preserve" style="white-space: pre" font-family="Inter" font-size="13" letter-spacing="0em"><tspan x="2866.21" y="1968.73">Generated from app-store-</tspan><tspan x="3000.36" y="1984.73">circle</tspan></text>
<text id="Typeset at 100 points" fill="black" xml:space="preserve" style="white-space: pre" font-family="Inter" font-size="13" letter-spacing="0em"><tspan x="2900.84" y="1986.73">Typeset at 100 points</tspan></text>
<text id="Small" fill="black" xml:space="preserve" style="white-space: pre" font-family="Inter" font-size="13" letter-spacing="0em"><tspan x="262.761" y="725.727">Small</tspan></text>
<text id="Medium_2" fill="black" xml:space="preserve" style="white-space: pre" font-family="Inter" font-size="13" letter-spacing="0em"><tspan x="262.761" y="1155.73">Medium</tspan></text>
<text id="Large" fill="black" xml:space="preserve" style="white-space: pre" font-family="Inter" font-size="13" letter-spacing="0em"><tspan x="262.761" y="1585.73">Large</tspan></text>
</g>
<g id="Guides">
<g id="H-reference">
<path id="Vector_10" d="M339.685 696H342.326L367.993 628.868H368.695V625.541H366.789L339.685 696ZM350.37 671.52H385.631L384.881 669.272H351.119L350.37 671.52ZM393.761 696H396.403L369.302 625.541H368.098V628.868L393.761 696Z" fill="#27AAE1"/>
</g>
<path id="Baseline-S" d="M262.761 696H3033.24" stroke="#27AAE1" stroke-width="0.5"/>
<path id="Capline-S" d="M262.761 625.541H3033.24" stroke="#27AAE1" stroke-width="0.5"/>
<g id="H-reference_2">
<path id="Vector_11" d="M339.685 1126H342.326L367.993 1058.87H368.695V1055.54H366.789L339.685 1126ZM350.37 1101.52H385.631L384.881 1099.27H351.119L350.37 1101.52ZM393.761 1126H396.403L369.302 1055.54H368.098V1058.87L393.761 1126Z" fill="#27AAE1"/>
</g>
<path id="Baseline-M" d="M262.761 1126H3033.24" stroke="#27AAE1" stroke-width="0.5"/>
<path id="Capline-M" d="M262.761 1055.54H3033.24" stroke="#27AAE1" stroke-width="0.5"/>
<g id="H-reference_3">
<path id="Vector_12" d="M339.685 1556H342.326L367.993 1488.87H368.695V1485.54H366.789L339.685 1556ZM350.37 1531.52H385.631L384.881 1529.27H351.119L350.37 1531.52ZM393.761 1556H396.403L369.302 1485.54H368.098V1488.87L393.761 1556Z" fill="#27AAE1"/>
</g>
<path id="Baseline-L" d="M262.761 1556H3033.24" stroke="#27AAE1" stroke-width="0.5"/>
<path id="Capline-L" d="M262.761 1485.54H3033.24" stroke="#27AAE1" stroke-width="0.5"/>
<path id="left-margin-Ultralight-S" d="M515.012 600.785V720.121" stroke="#00AEEF" stroke-width="0.5"/>
<path id="right-margin-Ultralight-S" d="M603.392 600.785V720.121" stroke="#00AEEF" stroke-width="0.5"/>
<path id="left-margin-Regular-S" d="M1402.18 600.785V720.121" stroke="#00AEEF" stroke-width="0.5"/>
<path id="right-margin-Regular-S" d="M1494.86 600.785V720.121" stroke="#00AEEF" stroke-width="0.5"/>
<path id="left-margin-Black-S" d="M2881.78 600.785V720.121" stroke="#00AEEF" stroke-width="0.5"/>
<path id="right-margin-Black-S" d="M2979.69 600.785V720.121" stroke="#00AEEF" stroke-width="0.5"/>
</g>
<g id="Symbols">
<g id="Black-S">
<g id="Vector_13">
<path fill-rule="evenodd" clip-rule="evenodd" d="M2971.51 662.334C2971.28 661.264 2970.95 660.214 2970.53 659.196C2971.33 659.632 2973.58 660.945 2975.26 662.769C2977.33 665.022 2978.51 668.054 2978.51 668.054C2978.51 668.054 2979.78 671.47 2979.07 675.11C2978.37 678.751 2975.68 682.613 2975.68 682.613C2975.68 682.613 2972.04 687.702 2967.23 689.306C2962.43 690.91 2960.06 688.913 2960.06 688.913L2960.06 684.859C2961.25 684.463 2966.66 681.812 2970.03 677.117C2971.98 674.408 2972.89 669.718 2972.55 666.088C2972.41 664.569 2971.91 663.211 2971.51 662.334Z" fill="black"/>
<path fill-rule="evenodd" clip-rule="evenodd" d="M2963.58 650.723L2955.46 645.297C2946.79 639.501 2935.02 641.768 2929.17 650.36C2923.32 658.953 2925.61 670.616 2934.28 676.412L2942.33 681.793L2942.33 675.864L2942.34 675.517L2938.1 672.687C2931.98 668.603 2930.38 660.365 2934.52 654.288C2938.66 648.211 2946.97 646.596 2953.09 650.681L2961.72 656.445C2967.84 660.53 2969.44 668.768 2965.3 674.845C2963.94 676.851 2962.11 678.371 2960.07 679.36C2960.06 680.574 2960.06 682.048 2960.06 683.694C2963.45 682.345 2966.49 680.007 2968.7 676.774C2974.54 668.182 2972.26 656.518 2963.58 650.723Z" fill="black"/>
<path fill-rule="evenodd" clip-rule="evenodd" d="M2942.39 670.29L2942.33 675.864L2942.33 713.652C2942.33 715.457 2943.06 717.188 2944.35 718.464C2945.63 719.74 2947.38 720.457 2949.2 720.457H2953.24C2954.14 720.457 2955.04 720.281 2955.87 719.939C2956.7 719.597 2957.46 719.096 2958.1 718.464C2958.74 717.832 2959.24 717.082 2959.59 716.256C2959.93 715.431 2960.11 714.546 2960.11 713.652C2960.11 713.652 2959.98 676.949 2960.11 675.864C2960.16 675.478 2960.58 674.898 2961.12 674.155C2962.1 672.807 2963.48 670.925 2963.69 668.698C2964.02 665.393 2962.58 663.759 2961.43 662.448C2961.38 662.388 2961.32 662.328 2961.27 662.269C2960.1 660.926 2951.79 654.594 2949.92 653.829C2948.06 653.065 2946.56 653.061 2943.97 653.829C2941.39 654.598 2940.45 655.771 2939.65 657.04C2938.85 658.309 2937.78 660.037 2938.14 662.895C2938.49 665.644 2940.44 667.673 2940.96 668.211C2940.98 668.233 2940.99 668.252 2941.01 668.269C2941.16 668.43 2941.32 668.572 2941.47 668.708C2941.72 668.938 2941.95 669.152 2942.13 669.416C2942.3 669.676 2942.39 669.98 2942.39 670.29ZM2961.89 667.778C2961.89 669.856 2960.19 671.54 2958.09 671.54C2955.99 671.54 2954.29 669.856 2954.29 667.778C2954.29 665.699 2955.99 664.015 2958.09 664.015C2960.19 664.015 2961.89 665.699 2961.89 667.778Z" fill="black"/>
</g>
<g id="Vector_14">
<path fill-rule="evenodd" clip-rule="evenodd" d="M2891.02 624.107C2890.2 624.538 2887.88 625.854 2886.15 627.682C2884.02 629.936 2882.8 632.967 2882.8 632.967C2882.8 632.967 2881.49 636.383 2882.22 640.024C2882.95 643.664 2885.71 647.526 2885.71 647.526C2885.71 647.526 2889.47 652.615 2894.41 654.219C2896.88 655.02 2899.65 654.952 2901.8 654.683C2901.8 652.929 2901.8 651.238 2901.8 649.674C2900.13 649.036 2894.78 646.427 2891.53 642.029C2889.53 639.32 2888.59 634.631 2888.94 631.001C2889.08 629.469 2889.6 628.101 2890.02 627.225C2890.26 626.162 2890.59 625.118 2891.02 624.107Z" fill="black"/>
<path fill-rule="evenodd" clip-rule="evenodd" d="M2898.17 615.637L2906.53 610.21C2915.46 604.415 2927.58 606.682 2933.6 615.274C2939.62 623.866 2937.27 635.53 2928.34 641.325L2920.04 646.711V640.777L2920.04 640.434L2924.41 637.601C2924.46 637.567 2924.51 637.532 2924.56 637.498C2930.73 633.379 2932.32 625.229 2928.09 619.202C2923.83 613.125 2915.27 611.51 2908.97 615.594L2900.09 621.358C2900.03 621.392 2899.98 621.427 2899.93 621.462C2893.76 625.58 2892.17 633.731 2896.4 639.757C2897.81 641.762 2899.68 643.282 2901.79 644.271C2901.79 645.485 2901.8 646.959 2901.8 648.606C2898.3 647.256 2895.17 644.919 2892.91 641.688C2886.89 633.096 2889.24 621.432 2898.17 615.637Z" fill="black"/>
<path fill-rule="evenodd" clip-rule="evenodd" d="M2919.98 635.203L2920.04 640.777L2920.04 678.565C2920.04 682.324 2916.88 685.37 2912.97 685.37H2908.81C2904.91 685.37 2901.74 682.324 2901.74 678.565C2901.74 678.565 2901.87 641.862 2901.74 640.777C2901.69 640.391 2901.26 639.811 2900.7 639.068C2899.69 637.721 2898.28 635.839 2898.05 633.611C2897.72 630.308 2899.2 628.673 2900.38 627.363C2900.44 627.302 2900.49 627.242 2900.55 627.182C2901.75 625.839 2910.31 619.507 2912.23 618.743C2914.15 617.978 2915.69 617.974 2918.35 618.743C2921.02 619.511 2921.99 620.684 2922.81 621.953C2923.63 623.222 2924.73 624.95 2924.36 627.809C2923.99 630.557 2921.99 632.586 2921.46 633.124C2921.44 633.146 2921.42 633.165 2921.4 633.182C2921.25 633.343 2921.09 633.485 2920.94 633.621C2920.68 633.852 2920.44 634.065 2920.25 634.329C2920.08 634.588 2919.98 634.892 2919.98 635.203ZM2908.22 632.853C2908.22 634.931 2906.47 636.616 2904.31 636.616C2902.15 636.616 2900.4 634.931 2900.4 632.853C2900.4 630.775 2902.15 629.09 2904.31 629.09C2906.47 629.09 2908.22 630.775 2908.22 632.853Z" fill="black"/>
</g>
</g>
<g id="Regular-S">
<g id="Vector_15">
<path fill-rule="evenodd" clip-rule="evenodd" d="M1487.2 662.673C1486.98 661.654 1486.67 660.655 1486.28 659.686C1487.04 660.1 1489.18 661.351 1490.77 663.086C1492.74 665.232 1493.87 668.118 1493.87 668.118C1493.87 668.118 1495.08 671.369 1494.4 674.834C1493.73 678.3 1491.18 681.976 1491.18 681.976C1491.18 681.976 1487.71 686.821 1483.13 688.347C1478.56 689.874 1476.3 687.973 1476.3 687.973L1476.3 684.114C1477.44 683.737 1482.59 681.213 1485.8 676.744C1487.65 674.165 1488.51 669.702 1488.19 666.246C1488.06 664.8 1487.58 663.508 1487.2 662.673Z" fill="black"/>
<path fill-rule="evenodd" clip-rule="evenodd" d="M1479.66 651.62L1471.93 646.455C1463.67 640.938 1452.47 643.096 1446.9 651.275C1441.33 659.454 1443.51 670.556 1451.77 676.073L1459.43 681.196L1459.43 675.551L1459.43 675.222L1455.4 672.528C1449.58 668.64 1448.05 660.798 1451.99 655.014C1455.94 649.229 1463.85 647.692 1469.67 651.58L1477.89 657.067C1483.71 660.955 1485.24 668.797 1481.3 674.581C1479.99 676.491 1478.26 677.938 1476.31 678.88C1476.31 680.035 1476.3 681.438 1476.3 683.005C1479.54 681.721 1482.43 679.496 1484.52 676.418C1490.09 668.239 1487.92 657.137 1479.66 651.62Z" fill="black"/>
<path fill-rule="evenodd" clip-rule="evenodd" d="M1459.49 670.246L1459.43 675.551L1459.43 711.522C1459.43 713.24 1460.12 714.888 1461.35 716.103C1462.57 717.318 1464.24 718 1465.97 718H1469.82C1470.67 718 1471.52 717.833 1472.32 717.507C1473.11 717.181 1473.83 716.704 1474.44 716.103C1475.05 715.501 1475.53 714.787 1475.86 714.001C1476.19 713.215 1476.35 712.373 1476.35 711.522C1476.35 711.522 1476.23 676.585 1476.35 675.552C1476.4 675.184 1476.8 674.632 1477.32 673.925C1478.25 672.642 1479.56 670.851 1479.76 668.73C1480.07 665.585 1478.7 664.029 1477.61 662.781C1477.56 662.724 1477.51 662.667 1477.46 662.611C1476.34 661.333 1468.43 655.305 1466.65 654.577C1464.88 653.85 1463.46 653.846 1460.99 654.577C1458.53 655.309 1457.63 656.425 1456.88 657.633C1456.12 658.842 1455.1 660.486 1455.44 663.207C1455.78 665.823 1457.63 667.755 1458.12 668.267C1458.14 668.288 1458.16 668.306 1458.17 668.322C1458.32 668.475 1458.46 668.61 1458.61 668.74C1458.84 668.959 1459.07 669.163 1459.24 669.414C1459.4 669.662 1459.49 669.951 1459.49 670.246ZM1478.05 667.854C1478.05 669.832 1476.43 671.436 1474.43 671.436C1472.43 671.436 1470.82 669.832 1470.82 667.854C1470.82 665.876 1472.43 664.273 1474.43 664.273C1476.43 664.273 1478.05 665.876 1478.05 667.854Z" fill="black"/>
</g>
<g id="Vector_16">
<path fill-rule="evenodd" clip-rule="evenodd" d="M1410.58 626.284C1409.81 626.695 1407.59 627.947 1405.95 629.687C1403.92 631.832 1402.76 634.718 1402.76 634.718C1402.76 634.718 1401.52 637.97 1402.21 641.435C1402.9 644.9 1405.53 648.577 1405.53 648.577C1405.53 648.577 1409.11 653.421 1413.81 654.948C1416.16 655.711 1418.8 655.645 1420.84 655.389C1420.85 653.72 1420.85 652.11 1420.85 650.621C1419.25 650.014 1414.16 647.531 1411.07 643.344C1409.16 640.766 1408.27 636.302 1408.6 632.847C1408.74 631.388 1409.24 630.086 1409.63 629.252C1409.86 628.24 1410.18 627.246 1410.58 626.284Z" fill="black"/>
<path fill-rule="evenodd" clip-rule="evenodd" d="M1417.39 618.221L1425.35 613.056C1433.85 607.539 1445.39 609.697 1451.12 617.876C1456.85 626.055 1454.61 637.157 1446.11 642.674L1438.21 647.8V642.152L1438.21 641.826L1442.37 639.129C1442.42 639.097 1442.47 639.064 1442.52 639.031C1448.39 635.11 1449.9 627.352 1445.88 621.615C1441.82 615.83 1433.67 614.293 1427.68 618.181L1419.22 623.668C1419.17 623.7 1419.12 623.733 1419.07 623.766C1413.2 627.686 1411.69 635.445 1415.71 641.182C1417.05 643.09 1418.83 644.537 1420.84 645.478C1420.84 646.634 1420.84 648.037 1420.85 649.605C1417.52 648.32 1414.54 646.095 1412.38 643.019C1406.65 634.84 1408.89 623.738 1417.39 618.221Z" fill="black"/>
<path fill-rule="evenodd" clip-rule="evenodd" d="M1438.16 636.847L1438.21 642.152L1438.21 678.123C1438.21 681.701 1435.2 684.601 1431.48 684.601H1427.52C1423.8 684.601 1420.79 681.701 1420.79 678.123C1420.79 678.123 1420.92 643.185 1420.79 642.152C1420.75 641.785 1420.33 641.233 1419.8 640.526C1418.84 639.244 1417.49 637.452 1417.28 635.331C1416.97 632.187 1418.37 630.631 1419.5 629.383C1419.55 629.325 1419.6 629.268 1419.65 629.212C1420.8 627.933 1428.95 621.905 1430.78 621.178C1432.61 620.45 1434.07 620.446 1436.6 621.178C1439.14 621.909 1440.06 623.026 1440.84 624.234C1441.62 625.442 1442.68 627.087 1442.32 629.808C1441.97 632.424 1440.07 634.355 1439.56 634.868C1439.54 634.888 1439.53 634.907 1439.51 634.923C1439.36 635.076 1439.21 635.211 1439.06 635.341C1438.82 635.56 1438.59 635.764 1438.41 636.015C1438.25 636.261 1438.16 636.55 1438.16 636.847ZM1426.96 634.61C1426.96 636.588 1425.29 638.191 1423.24 638.191C1421.18 638.191 1419.52 636.588 1419.52 634.61C1419.52 632.631 1421.18 631.028 1423.24 631.028C1425.29 631.028 1426.96 632.631 1426.96 634.61Z" fill="black"/>
</g>
</g>
<g id="Ultralight-S">
<g id="Vector_17">
<path fill-rule="evenodd" clip-rule="evenodd" d="M596.26 662.234C596.049 661.263 595.753 660.309 595.374 659.386C596.099 659.781 598.142 660.973 599.662 662.629C601.539 664.674 602.616 667.427 602.616 667.427C602.616 667.427 603.767 670.528 603.126 673.833C602.484 677.137 600.05 680.644 600.05 680.644C600.05 680.644 596.737 685.264 592.377 686.72C588.017 688.176 585.862 686.363 585.862 686.363L585.861 682.683C586.943 682.323 591.858 679.916 594.918 675.654C596.683 673.195 597.509 668.938 597.204 665.642C597.076 664.263 596.622 663.03 596.26 662.234Z" fill="black"/>
<path fill-rule="evenodd" clip-rule="evenodd" d="M589.064 651.693L581.692 646.767C573.819 641.505 563.132 643.564 557.821 651.364C552.51 659.164 554.588 669.753 562.461 675.014L569.772 679.9L569.772 674.516L569.776 674.202L565.928 671.633C560.376 667.925 558.921 660.446 562.679 654.93C566.438 649.413 573.986 647.947 579.539 651.655L587.375 656.888C592.928 660.596 594.383 668.075 590.624 673.591C589.383 675.413 587.729 676.793 585.871 677.69C585.866 678.793 585.863 680.131 585.862 681.625C588.946 680.4 591.706 678.278 593.704 675.343C599.015 667.543 596.937 656.954 589.064 651.693Z" fill="black"/>
<path fill-rule="evenodd" clip-rule="evenodd" d="M569.824 669.457L569.772 674.516L569.772 708.822C569.772 710.46 570.429 712.032 571.599 713.19C572.768 714.349 574.354 715 576.008 715H579.676C580.495 715 581.306 714.84 582.063 714.53C582.819 714.219 583.507 713.764 584.086 713.19C584.665 712.617 585.124 711.936 585.437 711.186C585.751 710.437 585.912 709.633 585.912 708.822C585.912 708.822 585.797 675.502 585.912 674.517C585.953 674.166 586.337 673.64 586.829 672.965C587.721 671.742 588.967 670.033 589.164 668.011C589.456 665.011 588.153 663.527 587.107 662.337C587.059 662.283 587.012 662.229 586.965 662.175C585.901 660.956 578.353 655.207 576.66 654.513C574.967 653.819 573.613 653.816 571.262 654.513C568.911 655.211 568.059 656.276 567.335 657.428C566.611 658.58 565.637 660.149 565.969 662.744C566.287 665.239 568.053 667.081 568.521 667.57C568.54 667.589 568.557 667.607 568.571 667.622C568.71 667.768 568.85 667.897 568.984 668.02C569.212 668.229 569.423 668.424 569.585 668.663C569.741 668.899 569.824 669.175 569.824 669.457ZM587.526 667.176C587.526 669.062 585.982 670.592 584.078 670.592C582.174 670.592 580.63 669.062 580.63 667.176C580.63 665.289 582.174 663.76 584.078 663.76C585.982 663.76 587.526 665.289 587.526 667.176Z" fill="black"/>
</g>
<g id="Vector_18">
<path fill-rule="evenodd" clip-rule="evenodd" d="M523.186 627.53C522.445 627.922 520.334 629.116 518.766 630.776C516.833 632.822 515.725 635.574 515.725 635.574C515.725 635.574 514.54 638.675 515.2 641.98C515.861 645.285 518.367 648.791 518.367 648.791C518.367 648.791 521.777 653.411 526.266 654.867C528.509 655.594 531.02 655.532 532.972 655.288C532.974 653.696 532.974 652.16 532.973 650.74C531.455 650.161 526.6 647.793 523.65 643.801C521.832 641.341 520.982 637.084 521.296 633.789C521.429 632.398 521.903 631.157 522.278 630.361C522.495 629.396 522.798 628.448 523.186 627.53Z" fill="black"/>
<path fill-rule="evenodd" clip-rule="evenodd" d="M529.681 619.841L537.27 614.914C545.375 609.653 556.378 611.711 561.845 619.511C567.312 627.312 565.173 637.9 557.068 643.162L549.536 648.05V642.664L549.533 642.353L553.498 639.781C553.546 639.75 553.594 639.718 553.641 639.687C559.24 635.948 560.681 628.549 556.844 623.077C552.975 617.561 545.204 616.094 539.487 619.802L531.419 625.035C531.372 625.066 531.324 625.097 531.277 625.129C525.677 628.867 524.237 636.267 528.074 641.738C529.35 643.558 531.052 644.938 532.964 645.836C532.968 646.938 532.971 648.276 532.973 649.771C529.799 648.546 526.96 646.424 524.904 643.491C519.436 635.69 521.575 625.102 529.681 619.841Z" fill="black"/>
<path fill-rule="evenodd" clip-rule="evenodd" d="M549.483 637.604L549.536 642.664L549.536 676.969C549.536 680.381 546.662 683.147 543.117 683.147H539.34C535.795 683.147 532.921 680.381 532.921 676.969C532.921 676.969 533.04 643.649 532.921 642.664C532.879 642.314 532.483 641.787 531.977 641.113C531.059 639.89 529.776 638.181 529.573 636.158C529.273 633.159 530.614 631.676 531.689 630.486C531.739 630.431 531.788 630.376 531.837 630.322C532.932 629.103 540.704 623.354 542.446 622.66C544.188 621.966 545.582 621.963 548.002 622.66C550.422 623.358 551.3 624.423 552.045 625.575C552.79 626.727 553.793 628.296 553.452 630.891C553.124 633.386 551.307 635.228 550.824 635.717C550.805 635.736 550.788 635.754 550.773 635.769C550.63 635.915 550.486 636.044 550.347 636.167C550.113 636.377 549.895 636.571 549.729 636.81C549.569 637.045 549.483 637.321 549.483 637.604ZM538.805 635.47C538.805 637.357 537.215 638.886 535.255 638.886C533.295 638.886 531.705 637.357 531.705 635.47C531.705 633.584 533.295 632.054 535.255 632.054C537.215 632.054 538.805 633.584 538.805 635.47Z" fill="black"/>
</g>
</g>
</g>
</g>
<defs>
<clipPath id="clip0_212_134">
<rect width="3297" height="2200" fill="white"/>
</clipPath>
</defs>
</svg>
